0
SECTION
2
BLOCKS
0
BLOCK
2
CH0
10
0
20
0
0
LWPOLYLINE
8
1
70
1
10
0
20
0
10
2
20
0
10
2
20
2
10
0
20
2
0
INSERT
8
1
2
CH1
10
10
20
0
0
ENDBLK
0
BLOCK
2
CH1
10
0
20
0
0
LWPOLYLINE
8
1
70
1
10
0
20
0
10
2
20
0
10
2
20
2
10
0
20
2
0
INSERT
8
1
2
CH2
10
10
20
0
0
ENDBLK
0
BLOCK
2
CH2
10
0
20
0
0
LWPOLYLINE
8
1
70
1
10
0
20
0
10
2
20
0
10
2
20
2
10
0
20
2
0
INSERT
8
1
2
CH3
10
10
20
0
0
ENDBLK
0
BLOCK
2
CH3
10
0
20
0
0
LWPOLYLINE
8
1
70
1
10
0
20
0
10
2
20
0
10
2
20
2
10
0
20
2
0
INSERT
8
1
2
CH4
10
10
20
0
0
ENDBLK
0
BLOCK
2
CH4
10
0
20
0
0
LWPOLYLINE
8
1
70
1
10
0
20
0
10
2
20
0
10
2
20
2
10
0
20
2
0
INSERT
8
1
2
CH5
10
10
20
0
0
ENDBLK
0
BLOCK
2
CH5
10
0
20
0
0
LWPOLYLINE
8
1
70
1
10
0
20
0
10
2
20
0
10
2
20
2
10
0
20
2
0
INSERT
8
1
2
CH6
10
10
20
0
0
ENDBLK
0
BLOCK
2
CH6
10
0
20
0
0
LWPOLYLINE
8
1
70
1
10
0
20
0
10
2
20
0
10
2
20
2
10
0
20
2
0
INSERT
8
1
2
CH7
10
10
20
0
0
ENDBLK
0
BLOCK
2
CH7
10
0
20
0
0
LWPOLYLINE
8
1
70
1
10
0
20
0
10
2
20
0
10
2
20
2
10
0
20
2
0
INSERT
8
1
2
CH8
10
10
20
0
0
ENDBLK
0
BLOCK
2
CH8
10
0
20
0
0
LWPOLYLINE
8
1
70
1
10
0
20
0
10
2
20
0
10
2
20
2
10
0
20
2
0
ENDBLK
0
ENDSEC
0
SECTION
2
ENTITIES
0
INSERT
8
1
2
CH0
10
0
20
0
0
ENDSEC
0
EOF
